<?xml version="1.0" encoding="UTF-8" standalone="no"?>
<!DOCTYPE svg PUBLIC "-//W3C//DTD SVG 1.1//EN" "http://www.w3.org/Graphics/SVG/1.1/DTD/svg11.dtd">
<svg width="100%" height="100%" viewBox="0 0 145 145" version="1.1" xmlns="http://www.w3.org/2000/svg" xmlns:xlink="http://www.w3.org/1999/xlink" xml:space="preserve" xmlns:serif="http://www.serif.com/" style="fill-rule:evenodd;clip-rule:evenodd;stroke-linecap:round;stroke-miterlimit:1.5;">
    <g transform="matrix(1,0,0,1,420.876,-1258.12)">
        <g transform="matrix(1,0,0,1,-766,96)">
            <circle cx="417.5" cy="1234.5" r="65.5" style="fill:rgb(255,237,194);stroke:white;stroke-width:7.63px;"/>
        </g>
        <g transform="matrix(0.89011,0,0,0.89011,-62.3297,46.5165)">
            <path d="M-276,1442.5C-276,1434.49 -282.492,1428 -290.499,1428L-352.501,1428C-360.508,1428 -367,1434.49 -367,1442.5L-367,1442.5C-367,1450.51 -360.508,1457 -352.501,1457L-290.499,1457C-282.492,1457 -276,1450.51 -276,1442.5L-276,1442.5Z" style="fill:rgb(161,66,25);"/>
        </g>
        <g transform="matrix(-1.63511e-16,0.89011,-0.89011,-1.63511e-16,935.484,1616.67)">
            <path d="M-276,1442.5C-276,1434.49 -282.492,1428 -290.499,1428L-352.501,1428C-360.508,1428 -367,1434.49 -367,1442.5L-367,1442.5C-367,1450.51 -360.508,1457 -352.501,1457L-290.499,1457C-282.492,1457 -276,1450.51 -276,1442.5L-276,1442.5Z" style="fill:rgb(161,66,25);"/>
        </g>
    </g>
</svg>
