<?xml version="1.0" encoding="UTF-8" standalone="no"?>
<!DOCTYPE svg PUBLIC "-//W3C//DTD SVG 1.1//EN" "http://www.w3.org/Graphics/SVG/1.1/DTD/svg11.dtd">
<svg width="100%" height="100%" viewBox="0 0 276 276" version="1.1" xmlns="http://www.w3.org/2000/svg" xmlns:xlink="http://www.w3.org/1999/xlink" xml:space="preserve" xmlns:serif="http://www.serif.com/" style="fill-rule:evenodd;clip-rule:evenodd;stroke-linecap:round;stroke-linejoin:round;stroke-miterlimit:1.5;">
    <g transform="matrix(1,0,0,1,-5747,-1300)">
        <path d="M6022.59,1354.59C6022.59,1340.11 6016.84,1326.22 6006.6,1315.99C5996.36,1305.75 5982.48,1300 5968,1300L5801.59,1300C5787.11,1300 5773.22,1305.75 5762.99,1315.99C5752.75,1326.22 5747,1340.11 5747,1354.59L5747,1521C5747,1535.48 5752.75,1549.36 5762.99,1559.6C5773.22,1569.84 5787.11,1575.59 5801.59,1575.59C5849.81,1575.59 5919.78,1575.59 5968,1575.59C5982.48,1575.59 5996.36,1569.84 6006.6,1559.6C6016.84,1549.36 6022.59,1535.48 6022.59,1521L6022.59,1354.59Z" style="fill:rgb(255,237,210);"/>
        <g transform="matrix(0.82595,0,0,1.40839,1024.25,-585.754)">
            <path d="M5992.53,1488.18L5884.79,1380.44L5777.05,1488.18L5992.53,1488.18Z" style="fill:none;stroke:rgb(130,0,0);stroke-width:29.82px;"/>
        </g>
    </g>
</svg>
