<?xml version="1.0" encoding="UTF-8" standalone="no"?>
<!DOCTYPE svg PUBLIC "-//W3C//DTD SVG 1.1//EN" "http://www.w3.org/Graphics/SVG/1.1/DTD/svg11.dtd">
<svg width="100%" height="100%" viewBox="0 0 313 313" version="1.1" xmlns="http://www.w3.org/2000/svg" xmlns:xlink="http://www.w3.org/1999/xlink" xml:space="preserve" xmlns:serif="http://www.serif.com/" style="fill-rule:evenodd;clip-rule:evenodd;stroke-linejoin:round;stroke-miterlimit:2;">
    <g transform="matrix(1,0,0,1,-6777.19,-1327.76)">
        <path d="M7090.02,1444.83L7090.02,1567.38C7090.02,1586.8 7082.31,1605.42 7068.58,1619.15C7054.85,1632.88 7036.23,1640.59 7016.82,1640.59L6850.4,1640.59C6830.98,1640.59 6812.36,1632.88 6798.63,1619.15C6784.9,1605.42 6777.19,1586.8 6777.19,1567.38L6777.19,1400.96C6777.19,1381.55 6784.9,1362.93 6798.63,1349.2C6812.36,1335.47 6830.98,1327.76 6850.4,1327.76L7016.82,1327.76C7036.23,1327.76 7054.85,1335.47 7068.58,1349.2C7082.31,1362.93 7090.02,1381.55 7090.02,1400.96L7090.02,1408.8C7088.61,1406.4 7086.9,1404.14 7084.88,1402.06C7075.98,1392.9 7063.32,1389.57 7051.68,1392.14C7050.11,1385.91 7046.87,1380.16 7042.25,1375.53C7035.5,1368.79 7026.36,1365 7016.82,1365L6850.4,1365C6840.86,1365 6831.71,1368.79 6824.97,1375.53C6818.23,1382.28 6814.44,1391.42 6814.44,1400.96L6814.44,1567.38C6814.44,1576.92 6818.23,1586.07 6824.97,1592.81C6831.71,1599.56 6840.86,1603.35 6850.4,1603.35L7016.82,1603.35C7026.36,1603.35 7035.5,1599.56 7042.25,1592.81C7048.99,1586.07 7052.78,1576.92 7052.78,1567.38L7052.78,1482.77L7084.15,1452.3C7086.49,1450.03 7088.45,1447.51 7090.02,1444.83ZM6832.91,1469.54L6914.71,1565.18C6919.17,1570.4 6925.6,1573.54 6932.46,1573.86C6939.32,1574.17 6946.01,1571.64 6950.94,1566.85L7076.73,1444.66C7086.58,1435.09 7086.81,1419.33 7077.24,1409.49C7067.68,1399.64 7051.92,1399.41 7042.07,1408.98L6935.29,1512.71C6935.29,1512.71 6870.72,1437.21 6870.72,1437.21C6861.79,1426.78 6846.08,1425.56 6835.65,1434.48C6825.22,1443.4 6823.99,1459.11 6832.91,1469.54Z" style="fill:rgb(130,0,0);"/>
    </g>
</svg>
