<?xml version="1.0" encoding="UTF-8" standalone="no"?>
<!DOCTYPE svg PUBLIC "-//W3C//DTD SVG 1.1//EN" "http://www.w3.org/Graphics/SVG/1.1/DTD/svg11.dtd">
<svg width="100%" height="100%" viewBox="0 0 164 164" version="1.1" xmlns="http://www.w3.org/2000/svg" xmlns:xlink="http://www.w3.org/1999/xlink" xml:space="preserve" xmlns:serif="http://www.serif.com/" style="fill-rule:evenodd;clip-rule:evenodd;stroke-linejoin:round;stroke-miterlimit:2;">
    <g transform="matrix(1,0,0,1,-3775.59,-1409.46)">
        <g transform="matrix(2.65634,0,0,1.7494,-8051.84,-2288.6)">
            <g transform="matrix(0.551242,0,0,0.837024,949.939,-106.715)">
                <circle cx="6410" cy="2709" r="56" style="fill:rgb(206,18,31);"/>
            </g>
        </g>
        <g transform="matrix(2.65634,0,0,1.7494,-8051.84,-2288.6)">
            <g transform="matrix(0.362434,0.550331,-0.362434,0.550331,2880.85,-2022.6)">
                <path d="M6021.44,1580.13L6021.44,1557.12C6021.44,1555.75 6020.9,1554.44 6019.93,1553.48C6018.97,1552.51 6017.66,1551.97 6016.29,1551.97C6013.4,1551.97 6009.81,1551.97 6006.91,1551.97C6005.55,1551.97 6004.24,1552.51 6003.28,1553.48C6002.31,1554.44 6001.77,1555.75 6001.77,1557.12C6001.77,1565.24 6001.77,1580.13 6001.77,1580.13L5978.75,1580.13C5977.39,1580.13 5976.08,1580.67 5975.11,1581.64C5974.15,1582.61 5973.6,1583.91 5973.6,1585.28C5973.6,1588.17 5973.6,1591.77 5973.6,1594.66C5973.6,1596.02 5974.15,1597.33 5975.11,1598.3C5976.08,1599.26 5977.39,1599.81 5978.75,1599.81C5986.88,1599.81 6001.77,1599.81 6001.77,1599.81L6001.77,1622.82C6001.77,1624.18 6002.31,1625.5 6003.28,1626.46C6004.24,1627.43 6005.55,1627.97 6006.91,1627.97C6009.81,1627.97 6013.4,1627.97 6016.29,1627.97C6017.66,1627.97 6018.97,1627.43 6019.93,1626.46C6020.9,1625.5 6021.44,1624.18 6021.44,1622.82C6021.44,1614.69 6021.44,1599.81 6021.44,1599.81L6044.45,1599.81C6045.82,1599.81 6047.13,1599.26 6048.1,1598.3C6049.06,1597.33 6049.6,1596.02 6049.6,1594.66C6049.6,1591.77 6049.6,1588.17 6049.6,1585.28C6049.6,1583.91 6049.06,1582.61 6048.1,1581.64C6047.13,1580.67 6045.82,1580.13 6044.45,1580.13C6036.33,1580.13 6021.44,1580.13 6021.44,1580.13Z" style="fill:rgb(254,234,187);"/>
            </g>
        </g>
    </g>
</svg>
