<?xml version="1.0" encoding="UTF-8" standalone="no"?>
<!DOCTYPE svg PUBLIC "-//W3C//DTD SVG 1.1//EN" "http://www.w3.org/Graphics/SVG/1.1/DTD/svg11.dtd">
<svg width="100%" height="100%" viewBox="0 0 112 112" version="1.1" xmlns="http://www.w3.org/2000/svg" xmlns:xlink="http://www.w3.org/1999/xlink" xml:space="preserve" xmlns:serif="http://www.serif.com/" style="fill-rule:evenodd;clip-rule:evenodd;stroke-linejoin:round;stroke-miterlimit:2;">
    <g transform="matrix(1,0,0,1,-1789.01,-1609.5)">
        <g transform="matrix(1,0,0,1,-4209.67,-1060)">
            <g transform="matrix(1,0,0,1,-355.323,16.5)">
                <circle cx="6410" cy="2709" r="56" style="fill:rgb(255,234,207);"/>
            </g>
        </g>
        <g transform="matrix(1,0,0,1,-4209.67,-1060)">
            <g transform="matrix(0.259295,0,0,0.221986,4322.72,2124.4)">
                <path d="M6858,2772.3C6858,2767.61 6856.4,2763.11 6853.57,2759.79C6850.73,2756.48 6846.88,2754.61 6842.86,2754.61C6784.5,2754.61 6574.5,2754.61 6516.14,2754.61C6512.12,2754.61 6508.27,2756.48 6505.44,2759.79C6502.6,2763.11 6501,2767.61 6501,2772.3C6501,2772.3 6501,2772.31 6501,2772.31C6501,2777.01 6502.6,2781.5 6505.44,2784.82C6508.27,2788.14 6512.12,2790 6516.14,2790C6574.5,2790 6784.5,2790 6842.86,2790C6846.88,2790 6850.73,2788.14 6853.57,2784.82C6856.4,2781.5 6858,2777.01 6858,2772.31C6858,2772.31 6858,2772.3 6858,2772.3Z" style="fill:rgb(152,60,25);"/>
            </g>
        </g>
        <g transform="matrix(1,0,0,1,-4209.67,-1060)">
            <g transform="matrix(0.221986,0,0,0.221986,4571.92,2124.4)">
                <path d="M6651.82,2560.87C6650.01,2556.97 6649,2552.63 6649,2548.06C6649,2531.22 6662.67,2517.56 6679.5,2517.56C6696.33,2517.56 6710,2531.22 6710,2548.06C6710,2552.63 6708.99,2556.97 6707.18,2560.87C6780.49,2573.12 6837.7,2633.21 6845.57,2707.89L6847.31,2707.89C6857.08,2707.89 6865,2715.81 6865,2725.58C6865,2725.59 6865,2725.59 6865,2725.59C6865,2735.36 6857.08,2743.28 6847.31,2743.28L6511.69,2743.28C6501.92,2743.28 6494,2735.36 6494,2725.59C6494,2725.59 6494,2725.59 6494,2725.58C6494,2715.81 6501.92,2707.89 6511.69,2707.89L6513.43,2707.89C6521.3,2633.21 6578.51,2573.12 6651.82,2560.87ZM6816.59,2707.89L6542.41,2707.89C6551.1,2639.95 6609.21,2587.37 6679.5,2587.37C6749.79,2587.37 6807.9,2639.95 6816.59,2707.89Z" style="fill:rgb(152,60,25);"/>
            </g>
        </g>
    </g>
</svg>
