<?xml version="1.0" encoding="UTF-8" standalone="no"?>
<!DOCTYPE svg PUBLIC "-//W3C//DTD SVG 1.1//EN" "http://www.w3.org/Graphics/SVG/1.1/DTD/svg11.dtd">
<svg width="100%" height="100%" viewBox="0 0 77 77" version="1.1" xmlns="http://www.w3.org/2000/svg" xmlns:xlink="http://www.w3.org/1999/xlink" xml:space="preserve" xmlns:serif="http://www.serif.com/" style="fill-rule:evenodd;clip-rule:evenodd;stroke-linejoin:round;stroke-miterlimit:2;">
    <g transform="matrix(1,0,0,1,-2070.85,-45.6159)">
        <g transform="matrix(1,0,0,1,-3193.33,-1060)">
            <path d="M5302.5,1105.62C5281.35,1105.62 5264.19,1122.78 5264.19,1143.93C5264.19,1165.08 5281.35,1182.24 5302.5,1182.24C5323.65,1182.24 5340.81,1165.08 5340.81,1143.93C5340.81,1122.78 5323.65,1105.62 5302.5,1105.62ZM5302.5,1113.24C5319.44,1113.24 5333.19,1126.99 5333.19,1143.93C5333.19,1160.87 5319.44,1174.62 5302.5,1174.62C5285.56,1174.62 5271.81,1160.87 5271.81,1143.93C5271.81,1126.99 5285.56,1113.24 5302.5,1113.24ZM5298.26,1166.92L5298.26,1134.9L5306.74,1134.9L5306.74,1166.92L5298.26,1166.92ZM5298.26,1130.56L5298.26,1122.72L5306.74,1122.72L5306.74,1130.56L5298.26,1130.56Z" style="fill:rgb(255,226,189);fill-rule:nonzero;"/>
        </g>
    </g>
</svg>
