<?xml version="1.0" encoding="UTF-8" standalone="no"?>
<!DOCTYPE svg PUBLIC "-//W3C//DTD SVG 1.1//EN" "http://www.w3.org/Graphics/SVG/1.1/DTD/svg11.dtd">
<svg width="100%" height="100%" viewBox="0 0 482 124" version="1.1" xmlns="http://www.w3.org/2000/svg" xmlns:xlink="http://www.w3.org/1999/xlink" xml:space="preserve" xmlns:serif="http://www.serif.com/" style="fill-rule:evenodd;clip-rule:evenodd;stroke-linejoin:round;stroke-miterlimit:2;">
    <g transform="matrix(1,0,0,1,-3316.05,-140)">
        <g transform="matrix(0.753277,0,0,0.753277,1.59706,-504.791)">
            <g transform="matrix(4.57212,0,0,4.57212,4537.52,770.384)">
                <path d="M27.387,33.258C27.234,33.097 27.04,33.042 26.835,33.052C26.629,33.063 26.435,33.143 26.292,33.323C26.129,33.476 26.07,33.692 26.059,33.894C26.069,34.099 26.149,34.293 26.307,34.433C36.839,43.216 35.749,41.902 27.387,33.258ZM26.329,35.25C26.171,35.111 25.955,35.052 25.771,35.066C25.566,35.077 25.368,35.18 25.206,35.333C25.066,35.492 24.986,35.704 24.996,35.909C24.989,36.088 25.065,36.304 25.223,36.444C34.375,43.208 34.558,43.33 26.329,35.25ZM52.021,40.233C59.684,42.948 60.563,32.219 57.105,28.312C57.71,26.605 57.032,24.049 55.23,21.846C52.899,19.034 49.604,17.915 47.872,19.341C46.113,20.787 46.595,24.237 48.904,27.045C50.631,29.145 52.903,30.296 54.668,30.164C55.371,30.553 55.829,30.924 56.754,32.007C62.309,39.319 53.702,40.198 38.892,30.086C21.713,18.329 18.972,26.144 21.603,32.013C23.214,33.595 21.947,36.549 23.555,38.017C25.434,39.758 28.085,41.878 30.708,41.619C28.509,40.299 26.66,38.654 24.665,36.802C24.585,36.744 24.529,36.666 24.5,36.571C24.449,36.473 24.402,36.351 24.398,36.237L24.387,36.167C24.357,36.073 24.372,35.985 24.39,35.874C24.388,35.761 24.427,35.655 24.486,35.575L26.249,32.23L26.252,32.208L26.348,32.044L26.525,31.937L26.766,31.978C26.854,31.993 26.931,32.074 27.051,32.162L27.048,32.184L34.503,38.957C34.602,39.041 34.726,39.107 34.836,39.125C34.885,36.962 30.211,33.011 28.249,31.233L26.993,30.094C25.521,28.897 24.241,31.395 22.6,29.988C19.125,27.254 23.697,25.084 31.423,27.561C41.04,30.627 45.469,37.909 52.021,40.233Z" style="fill:rgb(204,73,0);"/>
            </g>
        </g>
        <g transform="matrix(0.753277,0,0,0.753277,1.59706,-504.791)">
            <g transform="matrix(1.58877,0,0,1.58877,-2701.21,-429.36)">
                <g transform="matrix(36.2521,0,0,36.2521,4469,911.775)">
                    <path d="M0.757,0.002L0.496,0.002L0.496,-0.524C0.437,-0.478 0.407,-0.423 0.407,-0.358L0.407,0.002L0.146,0.002L0.146,-0.567L0.018,-0.567L0.018,-0.827L0.407,-0.827L0.407,-0.773C0.479,-0.809 0.553,-0.827 0.628,-0.827L0.757,-0.827L0.757,0.002Z" style="fill:rgb(204,73,0);fill-rule:nonzero;"/>
                </g>
                <g transform="matrix(36.2521,0,0,36.2521,4497.1,911.775)">
                    <path d="M0.585,-0L0.123,-0L0.123,-0.472L0.018,-0.472L0.018,-0.686L0.585,-0.686L0.585,-0.472L0.338,-0.472L0.338,-0.408L0.507,-0.408L0.507,-0.279L0.338,-0.279L0.338,-0.217L0.585,-0.217L0.585,-0Z" style="fill:rgb(204,73,0);fill-rule:nonzero;"/>
                </g>
                <g transform="matrix(36.2521,0,0,36.2521,4518.96,911.775)">
                    <path d="M0.922,0.002L0.705,0.002L0.705,-0.435C0.672,-0.409 0.649,-0.375 0.638,-0.334C0.635,-0.322 0.633,-0.314 0.633,-0.311L0.633,0.002L0.418,0.002L0.418,-0.435C0.368,-0.398 0.343,-0.352 0.343,-0.297L0.343,0.002L0.126,0.002L0.126,-0.472L0.018,-0.472L0.018,-0.686L0.343,-0.686L0.343,-0.642C0.4,-0.671 0.46,-0.686 0.525,-0.686L0.633,-0.686L0.633,-0.642C0.69,-0.671 0.751,-0.686 0.814,-0.686L0.922,-0.686L0.922,0.002Z" style="fill:rgb(204,73,0);fill-rule:nonzero;"/>
                </g>
                <g transform="matrix(36.2521,0,0,36.2521,4553.03,911.775)">
                    <path d="M0.757,0.002L0.496,0.002L0.496,-0.524C0.437,-0.478 0.407,-0.423 0.407,-0.358L0.407,0.002L0.146,0.002L0.146,-0.567L0.018,-0.567L0.018,-0.827L0.407,-0.827L0.407,-0.773C0.479,-0.809 0.553,-0.827 0.628,-0.827L0.757,-0.827L0.757,0.002Z" style="fill:rgb(204,73,0);fill-rule:nonzero;"/>
                </g>
                <g transform="matrix(36.2521,0,0,36.2521,4581.13,911.775)">
                    <path d="M0.585,-0L0.123,-0L0.123,-0.472L0.018,-0.472L0.018,-0.686L0.585,-0.686L0.585,-0.472L0.338,-0.472L0.338,-0.408L0.507,-0.408L0.507,-0.279L0.338,-0.279L0.338,-0.217L0.585,-0.217L0.585,-0Z" style="fill:rgb(204,73,0);fill-rule:nonzero;"/>
                </g>
                <g transform="matrix(36.2521,0,0,36.2521,4602.99,911.775)">
                    <path d="M0.922,0.002L0.705,0.002L0.705,-0.435C0.672,-0.409 0.649,-0.375 0.638,-0.334C0.635,-0.322 0.633,-0.314 0.633,-0.311L0.633,0.002L0.418,0.002L0.418,-0.435C0.368,-0.398 0.343,-0.352 0.343,-0.297L0.343,0.002L0.126,0.002L0.126,-0.472L0.018,-0.472L0.018,-0.686L0.343,-0.686L0.343,-0.642C0.4,-0.671 0.46,-0.686 0.525,-0.686L0.633,-0.686L0.633,-0.642C0.69,-0.671 0.751,-0.686 0.814,-0.686L0.922,-0.686L0.922,0.002Z" style="fill:rgb(204,73,0);fill-rule:nonzero;"/>
                </g>
                <g transform="matrix(36.2521,0,0,36.2521,4649.21,911.775)">
                    <path d="M0.892,0.002L0.633,0.002C0.633,-0.046 0.617,-0.088 0.585,-0.125C0.553,-0.162 0.513,-0.18 0.466,-0.18L0.419,-0.18L0.419,0.002L0.158,0.002L0.158,-0.567L0.018,-0.567L0.018,-0.827L0.509,-0.827C0.598,-0.827 0.673,-0.795 0.736,-0.732C0.799,-0.669 0.83,-0.592 0.83,-0.503C0.83,-0.43 0.808,-0.365 0.764,-0.308C0.849,-0.223 0.891,-0.119 0.892,0.002ZM0.571,-0.502C0.571,-0.52 0.565,-0.535 0.553,-0.548C0.541,-0.561 0.526,-0.567 0.509,-0.567L0.419,-0.567L0.419,-0.44L0.509,-0.44C0.526,-0.44 0.54,-0.446 0.553,-0.459C0.565,-0.471 0.571,-0.486 0.571,-0.502Z" style="fill:rgb(204,73,0);fill-rule:nonzero;"/>
                </g>
                <g transform="matrix(36.2521,0,0,36.2521,4682.2,911.775)">
                    <path d="M0.585,-0L0.123,-0L0.123,-0.472L0.018,-0.472L0.018,-0.686L0.585,-0.686L0.585,-0.472L0.338,-0.472L0.338,-0.408L0.507,-0.408L0.507,-0.279L0.338,-0.279L0.338,-0.217L0.585,-0.217L0.585,-0Z" style="fill:rgb(204,73,0);fill-rule:nonzero;"/>
                </g>
                <g transform="matrix(36.2521,0,0,36.2521,4704.06,911.775)">
                    <path d="M0.193,-0L0.019,-0L0.019,-0.214L0.193,-0.214C0.2,-0.214 0.203,-0.217 0.203,-0.222C0.203,-0.227 0.187,-0.237 0.156,-0.252C0.115,-0.271 0.082,-0.3 0.057,-0.338C0.032,-0.376 0.019,-0.417 0.019,-0.46C0.019,-0.523 0.042,-0.576 0.086,-0.62C0.132,-0.664 0.185,-0.686 0.248,-0.686L0.398,-0.686L0.398,-0.472L0.247,-0.472C0.238,-0.472 0.234,-0.468 0.234,-0.46C0.234,-0.452 0.251,-0.439 0.286,-0.422C0.327,-0.402 0.359,-0.374 0.383,-0.338C0.406,-0.302 0.418,-0.263 0.418,-0.221C0.418,-0.159 0.396,-0.107 0.352,-0.064C0.307,-0.021 0.254,-0 0.193,-0Z" style="fill:rgb(204,73,0);fill-rule:nonzero;"/>
                </g>
                <g transform="matrix(36.2521,0,0,36.2521,4719.86,911.775)">
                    <path d="M0.511,-0.472L0.373,-0.472L0.373,-0L0.158,-0L0.158,-0.472L0.019,-0.472L0.019,-0.686L0.511,-0.686L0.511,-0.472Z" style="fill:rgb(204,73,0);fill-rule:nonzero;"/>
                </g>
                <g transform="matrix(36.2521,0,0,36.2521,4739.04,911.775)">
                    <path d="M0.657,-0L0.418,-0L0.384,-0.117L0.333,-0.076L0.281,-0.119L0.243,-0L0.018,-0L0.164,-0.472L0.082,-0.472L0.082,-0.686L0.438,-0.686L0.657,-0ZM0.377,-0.146L0.336,-0.296L0.288,-0.146L0.377,-0.146Z" style="fill:rgb(204,73,0);fill-rule:nonzero;"/>
                </g>
                <g transform="matrix(36.2521,0,0,36.2521,4759.16,911.775)">
                    <path d="M0.597,-0.239C0.597,-0.17 0.573,-0.112 0.525,-0.064C0.477,-0.016 0.419,0.008 0.35,0.008C0.282,0.008 0.224,-0.016 0.175,-0.065C0.126,-0.113 0.102,-0.171 0.102,-0.24L0.102,-0.472L0.017,-0.472L0.017,-0.686L0.317,-0.686L0.317,-0.239C0.317,-0.218 0.328,-0.208 0.349,-0.208C0.358,-0.208 0.366,-0.211 0.372,-0.217C0.379,-0.223 0.382,-0.23 0.382,-0.239L0.382,-0.686L0.597,-0.686L0.597,-0.239Z" style="fill:rgb(204,73,0);fill-rule:nonzero;"/>
                </g>
                <g transform="matrix(36.2521,0,0,36.2521,4781.46,911.775)">
                    <path d="M0.744,0.002L0.529,0.002C0.529,-0.038 0.516,-0.073 0.489,-0.103C0.462,-0.134 0.429,-0.149 0.389,-0.149L0.35,-0.149L0.35,0.002L0.135,0.002L0.135,-0.472L0.018,-0.472L0.018,-0.686L0.426,-0.686C0.5,-0.686 0.563,-0.66 0.615,-0.607C0.666,-0.554 0.692,-0.491 0.692,-0.417C0.692,-0.356 0.674,-0.303 0.638,-0.256C0.709,-0.185 0.744,-0.099 0.744,0.002ZM0.477,-0.417C0.477,-0.432 0.472,-0.445 0.462,-0.456C0.453,-0.467 0.44,-0.472 0.426,-0.472L0.35,-0.472L0.35,-0.366L0.426,-0.366C0.44,-0.366 0.452,-0.371 0.462,-0.381C0.472,-0.391 0.477,-0.403 0.477,-0.417Z" style="fill:rgb(204,73,0);fill-rule:nonzero;"/>
                </g>
                <g transform="matrix(36.2521,0,0,36.2521,4809.08,911.775)">
                    <path d="M0.657,-0L0.418,-0L0.384,-0.117L0.333,-0.076L0.281,-0.119L0.243,-0L0.018,-0L0.164,-0.472L0.082,-0.472L0.082,-0.686L0.438,-0.686L0.657,-0ZM0.377,-0.146L0.336,-0.296L0.288,-0.146L0.377,-0.146Z" style="fill:rgb(204,73,0);fill-rule:nonzero;"/>
                </g>
                <g transform="matrix(36.2521,0,0,36.2521,4830.22,911.775)">
                    <path d="M0.632,0.002L0.415,0.002L0.415,-0.435C0.365,-0.396 0.34,-0.35 0.34,-0.297L0.34,0.002L0.125,0.002L0.125,-0.472L0.018,-0.472L0.018,-0.686L0.34,-0.686L0.34,-0.642C0.4,-0.671 0.462,-0.686 0.525,-0.686L0.632,-0.686L0.632,0.002Z" style="fill:rgb(204,73,0);fill-rule:nonzero;"/>
                </g>
                <g transform="matrix(36.2521,0,0,36.2521,4853.78,911.775)">
                    <path d="M0.511,-0.472L0.373,-0.472L0.373,-0L0.158,-0L0.158,-0.472L0.019,-0.472L0.019,-0.686L0.511,-0.686L0.511,-0.472Z" style="fill:rgb(204,73,0);fill-rule:nonzero;"/>
                </g>
            </g>
        </g>
    </g>
</svg>
