<?xml version="1.0" encoding="UTF-8" standalone="no"?>
<!DOCTYPE svg PUBLIC "-//W3C//DTD SVG 1.1//EN" "http://www.w3.org/Graphics/SVG/1.1/DTD/svg11.dtd">
<svg width="100%" height="100%" viewBox="0 0 330 132" version="1.1" xmlns="http://www.w3.org/2000/svg" xmlns:xlink="http://www.w3.org/1999/xlink" xml:space="preserve" xmlns:serif="http://www.serif.com/" style="fill-rule:evenodd;clip-rule:evenodd;stroke-linejoin:round;stroke-miterlimit:2;">
    <g transform="matrix(1,0,0,1,-2339.56,-27.9904)">
        <g transform="matrix(1,0,0,1,-3193.33,-1060)">
            <g transform="matrix(0.753277,0,0,0.753277,2219.96,443.199)">
                <g transform="matrix(4.57212,0,0,4.57212,4434.16,770.384)">
                    <path d="M27.387,33.258C27.234,33.097 27.04,33.042 26.835,33.052C26.629,33.063 26.435,33.143 26.292,33.323C26.129,33.476 26.07,33.692 26.059,33.894C26.069,34.099 26.149,34.293 26.307,34.433C36.839,43.216 35.749,41.902 27.387,33.258ZM26.329,35.25C26.171,35.111 25.955,35.052 25.771,35.066C25.566,35.077 25.368,35.18 25.206,35.333C25.066,35.492 24.986,35.704 24.996,35.909C24.989,36.088 25.065,36.304 25.223,36.444C34.375,43.208 34.558,43.33 26.329,35.25ZM52.021,40.233C59.684,42.948 60.563,32.219 57.105,28.312C57.71,26.605 57.032,24.049 55.23,21.846C52.899,19.034 49.604,17.915 47.872,19.341C46.113,20.787 46.595,24.237 48.904,27.045C50.631,29.145 52.903,30.296 54.668,30.164C55.371,30.553 55.829,30.924 56.754,32.007C62.309,39.319 53.702,40.198 38.892,30.086C21.713,18.329 18.972,26.144 21.603,32.013C23.214,33.595 21.947,36.549 23.555,38.017C25.434,39.758 28.085,41.878 30.708,41.619C28.509,40.299 26.66,38.654 24.665,36.802C24.585,36.744 24.529,36.666 24.5,36.571C24.449,36.473 24.402,36.351 24.398,36.237L24.387,36.167C24.357,36.073 24.372,35.985 24.39,35.874C24.388,35.761 24.427,35.655 24.486,35.575L26.249,32.23L26.252,32.208L26.348,32.044L26.525,31.937L26.766,31.978C26.854,31.993 26.931,32.074 27.051,32.162L27.048,32.184L34.503,38.957C34.602,39.041 34.726,39.107 34.836,39.125C34.885,36.962 30.211,33.011 28.249,31.233L26.993,30.094C25.521,28.897 24.241,31.395 22.6,29.988C19.125,27.254 23.697,25.084 31.423,27.561C41.04,30.627 45.469,37.909 52.021,40.233Z" style="fill:white;"/>
                </g>
                <g transform="matrix(1.58877,0,0,1.58877,-2701.21,-429.36)">
                    <g transform="matrix(36.2521,0,0,36.2521,4469,911.775)">
                        <path d="M0.283,-0L0.283,-0.009L0.243,-0.463L0.121,-0L-0.017,-0L0.141,-0.606C0.118,-0.593 0.092,-0.586 0.061,-0.586C0.051,-0.586 0.041,-0.587 0.03,-0.588L0.055,-0.682L0.08,-0.682C0.123,-0.682 0.156,-0.705 0.179,-0.75L0.323,-0.75L0.364,-0.319L0.476,-0.75L0.615,-0.75L0.419,-0L0.283,-0Z" style="fill:white;fill-rule:nonzero;"/>
                    </g>
                    <g transform="matrix(36.2521,0,0,36.2521,4487.92,911.775)">
                        <path d="M0.132,-0.158C0.137,-0.129 0.146,-0.112 0.161,-0.105C0.165,-0.102 0.17,-0.1 0.176,-0.097C0.224,-0.096 0.266,-0.114 0.301,-0.151L0.266,-0.016C0.238,0.002 0.208,0.011 0.176,0.011C0.148,0.011 0.12,0.004 0.092,-0.01C0.031,-0.04 0,-0.097 0,-0.182C0,-0.227 0.011,-0.272 0.032,-0.316C0.055,-0.364 0.088,-0.403 0.129,-0.432C0.17,-0.461 0.212,-0.475 0.254,-0.475C0.277,-0.475 0.299,-0.47 0.319,-0.461C0.372,-0.443 0.398,-0.403 0.398,-0.341C0.398,-0.33 0.397,-0.319 0.395,-0.31C0.386,-0.268 0.36,-0.231 0.319,-0.199C0.278,-0.167 0.233,-0.151 0.184,-0.151C0.166,-0.151 0.149,-0.153 0.132,-0.158ZM0.14,-0.245C0.153,-0.242 0.165,-0.241 0.178,-0.241C0.211,-0.241 0.239,-0.249 0.26,-0.265C0.282,-0.284 0.293,-0.304 0.293,-0.323C0.293,-0.334 0.289,-0.344 0.281,-0.354C0.273,-0.364 0.264,-0.369 0.253,-0.369C0.23,-0.369 0.206,-0.354 0.182,-0.323C0.162,-0.298 0.148,-0.272 0.14,-0.245Z" style="fill:white;fill-rule:nonzero;"/>
                    </g>
                    <g transform="matrix(36.2521,0,0,36.2521,4502.13,911.775)">
                        <path d="M0.666,0.072C0.684,0.073 0.698,0.067 0.709,0.054L0.739,0.143C0.708,0.176 0.663,0.194 0.604,0.197C0.565,0.197 0.534,0.183 0.509,0.156C0.488,0.133 0.477,0.109 0.476,0.084C0.476,0.089 0.479,0.061 0.485,0L0.568,-0.32C0.569,-0.323 0.57,-0.327 0.57,-0.33C0.57,-0.341 0.565,-0.35 0.554,-0.356C0.549,-0.36 0.544,-0.362 0.538,-0.362C0.526,-0.362 0.513,-0.356 0.498,-0.345C0.478,-0.328 0.467,-0.32 0.466,-0.319C0.456,-0.31 0.448,-0.299 0.442,-0.286L0.368,-0L0.229,-0L0.313,-0.315C0.314,-0.318 0.314,-0.322 0.314,-0.325C0.314,-0.336 0.309,-0.345 0.298,-0.351C0.294,-0.355 0.289,-0.357 0.282,-0.357C0.271,-0.357 0.258,-0.351 0.243,-0.34C0.219,-0.321 0.205,-0.308 0.2,-0.302C0.188,-0.287 0.179,-0.264 0.174,-0.234L0.173,-0.234L0.111,-0L-0.027,-0L0.097,-0.472L0.235,-0.472L0.225,-0.435C0.264,-0.46 0.302,-0.472 0.339,-0.472C0.352,-0.472 0.363,-0.47 0.372,-0.467C0.403,-0.453 0.425,-0.434 0.438,-0.408C0.491,-0.453 0.543,-0.476 0.595,-0.476C0.608,-0.476 0.619,-0.474 0.628,-0.471C0.683,-0.447 0.71,-0.406 0.71,-0.349C0.71,-0.338 0.709,-0.329 0.707,-0.32L0.623,-0C0.622,0.029 0.627,0.048 0.636,0.059C0.642,0.066 0.652,0.071 0.666,0.072Z" style="fill:white;fill-rule:nonzero;"/>
                    </g>
                    <g transform="matrix(36.2521,0,0,36.2521,4528.02,911.775)">
                        <path d="M0.283,-0L0.283,-0.009L0.243,-0.463L0.121,-0L-0.017,-0L0.141,-0.606C0.118,-0.593 0.092,-0.586 0.061,-0.586C0.051,-0.586 0.041,-0.587 0.03,-0.588L0.055,-0.682L0.08,-0.682C0.123,-0.682 0.156,-0.705 0.179,-0.75L0.323,-0.75L0.364,-0.319L0.476,-0.75L0.615,-0.75L0.419,-0L0.283,-0Z" style="fill:white;fill-rule:nonzero;"/>
                    </g>
                    <g transform="matrix(36.2521,0,0,36.2521,4546.94,911.775)">
                        <path d="M0.132,-0.158C0.137,-0.129 0.146,-0.112 0.161,-0.105C0.165,-0.102 0.17,-0.1 0.176,-0.097C0.224,-0.096 0.266,-0.114 0.301,-0.151L0.266,-0.016C0.238,0.002 0.208,0.011 0.176,0.011C0.148,0.011 0.12,0.004 0.092,-0.01C0.031,-0.04 0,-0.097 0,-0.182C0,-0.227 0.011,-0.272 0.032,-0.316C0.055,-0.364 0.088,-0.403 0.129,-0.432C0.17,-0.461 0.212,-0.475 0.254,-0.475C0.277,-0.475 0.299,-0.47 0.319,-0.461C0.372,-0.443 0.398,-0.403 0.398,-0.341C0.398,-0.33 0.397,-0.319 0.395,-0.31C0.386,-0.268 0.36,-0.231 0.319,-0.199C0.278,-0.167 0.233,-0.151 0.184,-0.151C0.166,-0.151 0.149,-0.153 0.132,-0.158ZM0.14,-0.245C0.153,-0.242 0.165,-0.241 0.178,-0.241C0.211,-0.241 0.239,-0.249 0.26,-0.265C0.282,-0.284 0.293,-0.304 0.293,-0.323C0.293,-0.334 0.289,-0.344 0.281,-0.354C0.273,-0.364 0.264,-0.369 0.253,-0.369C0.23,-0.369 0.206,-0.354 0.182,-0.323C0.162,-0.298 0.148,-0.272 0.14,-0.245Z" style="fill:white;fill-rule:nonzero;"/>
                    </g>
                    <g transform="matrix(36.2521,0,0,36.2521,4561.15,911.775)">
                        <path d="M0.666,0.072C0.684,0.073 0.698,0.067 0.709,0.054L0.739,0.143C0.708,0.176 0.663,0.194 0.604,0.197C0.565,0.197 0.534,0.183 0.509,0.156C0.488,0.133 0.477,0.109 0.476,0.084C0.476,0.089 0.479,0.061 0.485,0L0.568,-0.32C0.569,-0.323 0.57,-0.327 0.57,-0.33C0.57,-0.341 0.565,-0.35 0.554,-0.356C0.549,-0.36 0.544,-0.362 0.538,-0.362C0.526,-0.362 0.513,-0.356 0.498,-0.345C0.478,-0.328 0.467,-0.32 0.466,-0.319C0.456,-0.31 0.448,-0.299 0.442,-0.286L0.368,-0L0.229,-0L0.313,-0.315C0.314,-0.318 0.314,-0.322 0.314,-0.325C0.314,-0.336 0.309,-0.345 0.298,-0.351C0.294,-0.355 0.289,-0.357 0.282,-0.357C0.271,-0.357 0.258,-0.351 0.243,-0.34C0.219,-0.321 0.205,-0.308 0.2,-0.302C0.188,-0.287 0.179,-0.264 0.174,-0.234L0.173,-0.234L0.111,-0L-0.027,-0L0.097,-0.472L0.235,-0.472L0.225,-0.435C0.264,-0.46 0.302,-0.472 0.339,-0.472C0.352,-0.472 0.363,-0.47 0.372,-0.467C0.403,-0.453 0.425,-0.434 0.438,-0.408C0.491,-0.453 0.543,-0.476 0.595,-0.476C0.608,-0.476 0.619,-0.474 0.628,-0.471C0.683,-0.447 0.71,-0.406 0.71,-0.349C0.71,-0.338 0.709,-0.329 0.707,-0.32L0.623,-0C0.622,0.029 0.627,0.048 0.636,0.059C0.642,0.066 0.652,0.071 0.666,0.072Z" style="fill:white;fill-rule:nonzero;"/>
                    </g>
                    <g transform="matrix(36.2521,0,0,36.2521,4595.27,911.775)">
                        <path d="M0.139,-0.606C0.116,-0.593 0.09,-0.586 0.059,-0.586C0.049,-0.586 0.039,-0.587 0.028,-0.588L0.053,-0.682L0.078,-0.682C0.121,-0.682 0.154,-0.705 0.177,-0.75L0.336,-0.75C0.415,-0.75 0.483,-0.721 0.539,-0.662C0.563,-0.629 0.575,-0.593 0.575,-0.552C0.575,-0.5 0.553,-0.451 0.508,-0.404C0.473,-0.367 0.432,-0.346 0.385,-0.339C0.41,-0.302 0.424,-0.254 0.426,-0.197C0.426,-0.176 0.423,-0.148 0.418,-0.111C0.413,-0.074 0.41,-0.049 0.41,-0.037C0.41,-0.02 0.413,-0.007 0.42,-0C0.433,0.015 0.44,0.023 0.441,0.023C0.448,0.03 0.456,0.033 0.465,0.033C0.475,0.033 0.489,0.029 0.508,0.022L0.527,0.129C0.477,0.158 0.43,0.172 0.385,0.172C0.352,0.172 0.325,0.165 0.304,0.151C0.265,0.123 0.245,0.084 0.245,0.033C0.245,0.015 0.248,-0.006 0.254,-0.033C0.26,-0.059 0.266,-0.086 0.273,-0.113C0.283,-0.16 0.288,-0.2 0.288,-0.233C0.288,-0.28 0.277,-0.312 0.256,-0.33L0.279,-0.421C0.362,-0.419 0.413,-0.458 0.432,-0.54C0.433,-0.547 0.434,-0.554 0.434,-0.561C0.434,-0.595 0.42,-0.62 0.391,-0.635C0.371,-0.646 0.35,-0.65 0.327,-0.649C0.319,-0.647 0.313,-0.646 0.31,-0.647L0.14,-0L-0.019,-0L0.139,-0.606Z" style="fill:white;fill-rule:nonzero;"/>
                    </g>
                    <g transform="matrix(36.2521,0,0,36.2521,4613.57,911.775)">
                        <path d="M0.132,-0.158C0.137,-0.129 0.146,-0.112 0.161,-0.105C0.165,-0.102 0.17,-0.1 0.176,-0.097C0.224,-0.096 0.266,-0.114 0.301,-0.151L0.266,-0.016C0.238,0.002 0.208,0.011 0.176,0.011C0.148,0.011 0.12,0.004 0.092,-0.01C0.031,-0.04 0,-0.097 0,-0.182C0,-0.227 0.011,-0.272 0.032,-0.316C0.055,-0.364 0.088,-0.403 0.129,-0.432C0.17,-0.461 0.212,-0.475 0.254,-0.475C0.277,-0.475 0.299,-0.47 0.319,-0.461C0.372,-0.443 0.398,-0.403 0.398,-0.341C0.398,-0.33 0.397,-0.319 0.395,-0.31C0.386,-0.268 0.36,-0.231 0.319,-0.199C0.278,-0.167 0.233,-0.151 0.184,-0.151C0.166,-0.151 0.149,-0.153 0.132,-0.158ZM0.14,-0.245C0.153,-0.242 0.165,-0.241 0.178,-0.241C0.211,-0.241 0.239,-0.249 0.26,-0.265C0.282,-0.284 0.293,-0.304 0.293,-0.323C0.293,-0.334 0.289,-0.344 0.281,-0.354C0.273,-0.364 0.264,-0.369 0.253,-0.369C0.23,-0.369 0.206,-0.354 0.182,-0.323C0.162,-0.298 0.148,-0.272 0.14,-0.245Z" style="fill:white;fill-rule:nonzero;"/>
                    </g>
                    <g transform="matrix(36.2521,0,0,36.2521,4626.88,911.775)">
                        <path d="M0.361,-0.339C0.323,-0.366 0.278,-0.38 0.227,-0.38C0.216,-0.38 0.204,-0.376 0.193,-0.369C0.182,-0.362 0.176,-0.353 0.176,-0.342C0.176,-0.331 0.19,-0.319 0.219,-0.304C0.259,-0.284 0.286,-0.269 0.299,-0.258C0.327,-0.235 0.341,-0.207 0.341,-0.174C0.341,-0.117 0.322,-0.072 0.284,-0.038C0.246,-0.003 0.198,0.014 0.141,0.014C0.122,0.014 0.094,0.01 0.059,0.002C0.02,-0.006 -0.005,-0.014 -0.016,-0.023L0.012,-0.134C0.049,-0.113 0.093,-0.102 0.144,-0.102C0.188,-0.102 0.21,-0.114 0.21,-0.139C0.21,-0.158 0.197,-0.174 0.171,-0.189C0.144,-0.204 0.118,-0.218 0.092,-0.232C0.065,-0.253 0.051,-0.279 0.051,-0.31C0.051,-0.361 0.071,-0.404 0.111,-0.439C0.149,-0.472 0.194,-0.488 0.246,-0.488C0.305,-0.488 0.353,-0.476 0.389,-0.451L0.361,-0.339Z" style="fill:white;fill-rule:nonzero;"/>
                    </g>
                    <g transform="matrix(36.2521,0,0,36.2521,4640.18,911.775)">
                        <path d="M0.148,-0L0.01,-0L0.107,-0.37L0.043,-0.37L0.07,-0.473L0.133,-0.473L0.187,-0.678L0.324,-0.678L0.272,-0.473L0.359,-0.473L0.331,-0.37L0.245,-0.37L0.148,-0Z" style="fill:white;fill-rule:nonzero;"/>
                    </g>
                    <g transform="matrix(36.2521,0,0,36.2521,4651.06,911.775)">
                        <path d="M0.081,-0.001C0.027,-0.024 0,-0.078 0,-0.162C0,-0.209 0.01,-0.256 0.03,-0.303C0.052,-0.355 0.082,-0.397 0.12,-0.43C0.158,-0.463 0.195,-0.48 0.233,-0.48C0.271,-0.48 0.3,-0.464 0.322,-0.433L0.334,-0.474L0.469,-0.474L0.382,-0.138C0.381,-0.133 0.38,-0.129 0.38,-0.125C0.38,-0.112 0.388,-0.105 0.403,-0.105C0.412,-0.105 0.421,-0.106 0.432,-0.109L0.407,-0.022C0.372,0.001 0.34,0.012 0.311,0.012C0.278,0.012 0.25,-0.003 0.227,-0.033C0.192,-0.006 0.158,0.007 0.124,0.007C0.109,0.007 0.094,0.004 0.081,-0.001ZM0.248,-0.373C0.232,-0.373 0.215,-0.363 0.197,-0.343C0.178,-0.323 0.163,-0.296 0.151,-0.264C0.14,-0.233 0.134,-0.204 0.134,-0.176C0.134,-0.131 0.146,-0.109 0.169,-0.109C0.184,-0.109 0.201,-0.12 0.22,-0.141C0.239,-0.163 0.254,-0.19 0.266,-0.223C0.278,-0.254 0.284,-0.282 0.284,-0.309C0.284,-0.352 0.272,-0.373 0.248,-0.373Z" style="fill:white;fill-rule:nonzero;"/>
                    </g>
                    <g transform="matrix(36.2521,0,0,36.2521,4668.39,911.775)">
                        <path d="M0.152,-0.11C0.156,-0.107 0.162,-0.105 0.169,-0.105C0.181,-0.105 0.195,-0.109 0.212,-0.117C0.232,-0.127 0.248,-0.147 0.26,-0.177L0.338,-0.472L0.476,-0.472L0.353,0.004L0.214,0.004L0.222,-0.025C0.182,-0.004 0.141,0.007 0.1,0.007C0.091,0.007 0.084,0.007 0.078,0.006C0.023,-0.008 -0.004,-0.048 -0.004,-0.114C-0.004,-0.125 -0.003,-0.136 -0.001,-0.146L0.085,-0.472L0.223,-0.472L0.137,-0.146C0.136,-0.143 0.136,-0.139 0.136,-0.136C0.136,-0.125 0.141,-0.116 0.152,-0.11Z" style="fill:white;fill-rule:nonzero;"/>
                    </g>
                    <g transform="matrix(36.2521,0,0,36.2521,4685.35,911.775)">
                        <path d="M0.344,-0.465L0.313,-0.336C0.296,-0.346 0.279,-0.351 0.264,-0.351C0.228,-0.351 0.201,-0.327 0.181,-0.278L0.106,-0L-0.032,-0L0.095,-0.472L0.233,-0.472L0.225,-0.442C0.258,-0.462 0.287,-0.472 0.314,-0.472C0.326,-0.472 0.336,-0.47 0.344,-0.465Z" style="fill:white;fill-rule:nonzero;"/>
                    </g>
                    <g transform="matrix(36.2521,0,0,36.2521,4696.3,911.775)">
                        <path d="M0.081,-0.001C0.027,-0.024 0,-0.078 0,-0.162C0,-0.209 0.01,-0.256 0.03,-0.303C0.052,-0.355 0.082,-0.397 0.12,-0.43C0.158,-0.463 0.195,-0.48 0.233,-0.48C0.271,-0.48 0.3,-0.464 0.322,-0.433L0.334,-0.474L0.469,-0.474L0.382,-0.138C0.381,-0.133 0.38,-0.129 0.38,-0.125C0.38,-0.112 0.388,-0.105 0.403,-0.105C0.412,-0.105 0.421,-0.106 0.432,-0.109L0.407,-0.022C0.372,0.001 0.34,0.012 0.311,0.012C0.278,0.012 0.25,-0.003 0.227,-0.033C0.192,-0.006 0.158,0.007 0.124,0.007C0.109,0.007 0.094,0.004 0.081,-0.001ZM0.248,-0.373C0.232,-0.373 0.215,-0.363 0.197,-0.343C0.178,-0.323 0.163,-0.296 0.151,-0.264C0.14,-0.233 0.134,-0.204 0.134,-0.176C0.134,-0.131 0.146,-0.109 0.169,-0.109C0.184,-0.109 0.201,-0.12 0.22,-0.141C0.239,-0.163 0.254,-0.19 0.266,-0.223C0.278,-0.254 0.284,-0.282 0.284,-0.309C0.284,-0.352 0.272,-0.373 0.248,-0.373Z" style="fill:white;fill-rule:nonzero;"/>
                    </g>
                    <g transform="matrix(36.2521,0,0,36.2521,4713.63,911.775)">
                        <path d="M0.413,0.075C0.428,0.076 0.443,0.069 0.456,0.056L0.486,0.146C0.455,0.179 0.41,0.197 0.351,0.2C0.312,0.2 0.281,0.186 0.256,0.159C0.235,0.136 0.224,0.112 0.223,0.087C0.223,0.09 0.226,0.061 0.232,0L0.315,-0.317C0.316,-0.32 0.317,-0.324 0.317,-0.327C0.317,-0.338 0.312,-0.347 0.301,-0.353C0.296,-0.357 0.291,-0.359 0.285,-0.359C0.273,-0.359 0.26,-0.353 0.246,-0.342C0.236,-0.334 0.226,-0.326 0.216,-0.317C0.206,-0.308 0.199,-0.299 0.193,-0.288L0.117,-0L-0.021,-0L0.103,-0.472L0.241,-0.472L0.233,-0.44C0.27,-0.461 0.307,-0.472 0.342,-0.472C0.355,-0.472 0.366,-0.471 0.375,-0.468C0.43,-0.444 0.457,-0.403 0.457,-0.346C0.457,-0.335 0.456,-0.326 0.454,-0.317L0.37,-0C0.369,0.047 0.384,0.072 0.413,0.075Z" style="fill:white;fill-rule:nonzero;"/>
                    </g>
                    <g transform="matrix(36.2521,0,0,36.2521,4730.45,911.775)">
                        <path d="M0.148,-0L0.01,-0L0.107,-0.37L0.043,-0.37L0.07,-0.473L0.133,-0.473L0.187,-0.678L0.324,-0.678L0.272,-0.473L0.359,-0.473L0.331,-0.37L0.245,-0.37L0.148,-0Z" style="fill:white;fill-rule:nonzero;"/>
                    </g>
                </g>
            </g>
        </g>
    </g>
</svg>
