<?xml version="1.0" encoding="UTF-8" standalone="no"?>
<!DOCTYPE svg PUBLIC "-//W3C//DTD SVG 1.1//EN" "http://www.w3.org/Graphics/SVG/1.1/DTD/svg11.dtd">
<svg width="100%" height="100%" viewBox="0 0 256 256" version="1.1" xmlns="http://www.w3.org/2000/svg" xmlns:xlink="http://www.w3.org/1999/xlink" xml:space="preserve" xmlns:serif="http://www.serif.com/" style="fill-rule:evenodd;clip-rule:evenodd;stroke-linejoin:round;stroke-miterlimit:2;">
    <g transform="matrix(1,0,0,1,-603.879,-1223.88)">
        <path d="M731.5,1223.88C661.064,1223.88 603.879,1281.06 603.879,1351.5C603.879,1421.94 661.064,1479.12 731.5,1479.12C801.936,1479.12 859.121,1421.94 859.121,1351.5C859.121,1281.06 801.936,1223.88 731.5,1223.88ZM731.5,1244.12C790.764,1244.12 838.879,1292.24 838.879,1351.5C838.879,1410.76 790.764,1458.88 731.5,1458.88C672.236,1458.88 624.121,1410.76 624.121,1351.5C624.121,1292.24 672.236,1244.12 731.5,1244.12ZM816.5,1351.5C816.5,1342.94 809.56,1336 801,1336L662,1336C657.889,1336 653.947,1337.63 651.04,1340.54C648.133,1343.45 646.5,1347.39 646.5,1351.5L646.5,1351.5C646.5,1360.06 653.44,1367 662,1367L801,1367C809.56,1367 816.5,1360.06 816.5,1351.5L816.5,1351.5Z" style="fill:rgb(255,71,0);"/>
    </g>
</svg>
