<?xml version="1.0" encoding="UTF-8" standalone="no"?>
<!DOCTYPE svg PUBLIC "-//W3C//DTD SVG 1.1//EN" "http://www.w3.org/Graphics/SVG/1.1/DTD/svg11.dtd">
<svg width="100%" height="100%" viewBox="0 0 256 256" version="1.1" xmlns="http://www.w3.org/2000/svg" xmlns:xlink="http://www.w3.org/1999/xlink" xml:space="preserve" xmlns:serif="http://www.serif.com/" style="fill-rule:evenodd;clip-rule:evenodd;stroke-linejoin:round;stroke-miterlimit:2;">
    <g transform="matrix(1,0,0,1,-978.879,-1223.88)">
        <path d="M1106.5,1223.88C1036.06,1223.88 978.879,1281.06 978.879,1351.5C978.879,1421.94 1036.06,1479.12 1106.5,1479.12C1176.94,1479.12 1234.12,1421.94 1234.12,1351.5C1234.12,1281.06 1176.94,1223.88 1106.5,1223.88ZM1106.5,1244.12C1165.76,1244.12 1213.88,1292.24 1213.88,1351.5C1213.88,1410.76 1165.76,1458.88 1106.5,1458.88C1047.24,1458.88 999.121,1410.76 999.121,1351.5C999.121,1292.24 1047.24,1244.12 1106.5,1244.12ZM1091,1336L1037,1336C1032.89,1336 1028.95,1337.63 1026.04,1340.54C1023.13,1343.45 1021.5,1347.39 1021.5,1351.5L1021.5,1351.5C1021.5,1360.06 1028.44,1367 1037,1367L1091,1367L1091,1421C1091,1425.11 1092.63,1429.05 1095.54,1431.96C1098.45,1434.87 1102.39,1436.5 1106.5,1436.5L1106.5,1436.5C1115.06,1436.5 1122,1429.56 1122,1421L1122,1367L1176,1367C1184.56,1367 1191.5,1360.06 1191.5,1351.5L1191.5,1351.5C1191.5,1342.94 1184.56,1336 1176,1336L1122,1336L1122,1282C1122,1273.44 1115.06,1266.5 1106.5,1266.5L1106.5,1266.5C1097.94,1266.5 1091,1273.44 1091,1282L1091,1336Z" style="fill:rgb(97,106,0);"/>
    </g>
</svg>
