<?xml version="1.0" encoding="UTF-8" standalone="no"?>
<!DOCTYPE svg PUBLIC "-//W3C//DTD SVG 1.1//EN" "http://www.w3.org/Graphics/SVG/1.1/DTD/svg11.dtd">
<svg width="100%" height="100%" viewBox="0 0 46 59" version="1.1" xmlns="http://www.w3.org/2000/svg" xmlns:xlink="http://www.w3.org/1999/xlink" xml:space="preserve" xmlns:serif="http://www.serif.com/" style="fill-rule:evenodd;clip-rule:evenodd;stroke-linejoin:round;stroke-miterlimit:2;">
    <g transform="matrix(1,0,0,1,-2208.76,-2288.56)">
        <path d="M2216.66,2328.31L2209.86,2337.91C2208.92,2339.15 2208.56,2340.74 2208.87,2342.26C2209.18,2343.79 2210.14,2345.11 2211.48,2345.89C2211.48,2345.89 2211.48,2345.89 2211.48,2345.89C2212.83,2346.66 2214.45,2346.83 2215.93,2346.33C2217.4,2345.84 2218.6,2344.74 2219.21,2343.31L2224.12,2332.61C2234.17,2336.09 2245.61,2332.07 2251.12,2322.52C2257.37,2311.7 2253.66,2297.84 2242.83,2291.59C2232.01,2285.34 2218.15,2289.05 2211.9,2299.88C2206.38,2309.43 2208.62,2321.34 2216.66,2328.31ZM2240.58,2295.49C2249.25,2300.5 2252.22,2311.6 2247.22,2320.27C2242.21,2328.94 2231.11,2331.91 2222.44,2326.91C2213.77,2321.9 2210.8,2310.8 2215.8,2302.13C2220.81,2293.46 2231.91,2290.49 2240.58,2295.49Z" style="fill:rgb(152,60,25);fill-rule:nonzero;"/>
    </g>
</svg>
