<?xml version="1.0" encoding="UTF-8" standalone="no"?>
<!DOCTYPE svg PUBLIC "-//W3C//DTD SVG 1.1//EN" "http://www.w3.org/Graphics/SVG/1.1/DTD/svg11.dtd">
<svg width="100%" height="100%" viewBox="0 0 313 313" version="1.1" xmlns="http://www.w3.org/2000/svg" xmlns:xlink="http://www.w3.org/1999/xlink" xml:space="preserve" xmlns:serif="http://www.serif.com/" style="fill-rule:evenodd;clip-rule:evenodd;stroke-linejoin:round;stroke-miterlimit:2;">
    <g transform="matrix(1,0,0,1,-6421.38,-1327.76)">
        <g transform="matrix(1,0,0,1,693,46.3782)">
            <path d="M6041.21,1354.59C6041.21,1335.17 6033.5,1316.55 6019.77,1302.82C6006.04,1289.09 5987.42,1281.38 5968,1281.38L5801.59,1281.38C5782.17,1281.38 5763.55,1289.09 5749.82,1302.82C5736.09,1316.55 5728.38,1335.17 5728.38,1354.59L5728.38,1521C5728.38,1540.42 5736.09,1559.04 5749.82,1572.77C5763.55,1586.5 5782.17,1594.21 5801.59,1594.21L5968,1594.21C5987.42,1594.21 6006.04,1586.5 6019.77,1572.77C6033.5,1559.04 6041.21,1540.42 6041.21,1521L6041.21,1354.59ZM6003.97,1354.59L6003.97,1521C6003.97,1530.54 6000.18,1539.69 5993.43,1546.43C5986.69,1553.18 5977.54,1556.97 5968,1556.97L5801.59,1556.97C5792.05,1556.97 5782.9,1553.18 5776.15,1546.43C5769.41,1539.69 5765.62,1530.54 5765.62,1521L5765.62,1354.59C5765.62,1345.05 5769.41,1335.9 5776.15,1329.15C5782.9,1322.41 5792.05,1318.62 5801.59,1318.62L5968,1318.62C5977.54,1318.62 5986.69,1322.41 5993.43,1329.15C6000.18,1335.9 6003.97,1345.05 6003.97,1354.59Z" style="fill:rgb(130,0,0);"/>
        </g>
    </g>
</svg>
