<?xml version="1.0" encoding="UTF-8" standalone="no"?>
<!DOCTYPE svg PUBLIC "-//W3C//DTD SVG 1.1//EN" "http://www.w3.org/Graphics/SVG/1.1/DTD/svg11.dtd">
<svg width="100%" height="100%" viewBox="0 0 747 747" version="1.1" xmlns="http://www.w3.org/2000/svg" xmlns:xlink="http://www.w3.org/1999/xlink" xml:space="preserve" xmlns:serif="http://www.serif.com/" style="fill-rule:evenodd;clip-rule:evenodd;stroke-linejoin:round;stroke-miterlimit:2;">
    <g transform="matrix(1,0,0,1,-4290,-1006.94)">
        <g transform="matrix(1,0,0,1,3596,-49.063)">
            <rect x="694" y="1056" width="747" height="747" style="fill:rgb(216,182,182);"/>
        </g>
        <g id="path854" transform="matrix(7.61762,0,0,7.61762,2962.64,-190.687)">
            <path d="M208.33,215.587C205.421,214.819 202.524,212.127 201.518,209.26C201.098,208.062 201.054,206.589 201.054,193.65C201.054,180.71 201.098,179.237 201.518,178.039C202.544,175.115 205.439,172.467 208.452,171.696C210.785,171.099 235.773,171.099 238.106,171.696C241.12,172.467 244.014,175.115 245.04,178.039C245.46,179.237 245.504,180.71 245.504,193.65C245.504,206.589 245.46,208.062 245.04,209.26C244.014,212.184 241.12,214.833 238.106,215.604C235.839,216.184 210.534,216.17 208.33,215.587L208.33,215.587ZM237.908,210.479C240.001,209.411 240.609,208.107 240.609,204.693L240.609,202.083L238.001,199.52C235.725,197.285 235.276,196.957 234.485,196.957C233.873,196.957 233.281,197.205 232.665,197.719L231.751,198.482L233.667,200.498C235.365,202.286 235.582,202.63 235.582,203.536C235.582,204.966 234.579,205.953 233.124,205.953C232.087,205.953 231.886,205.78 224.967,198.905L217.874,191.858L216.883,192.018C216.031,192.157 215.19,192.879 210.92,197.145L205.949,202.111L205.949,204.704C205.949,208.132 206.547,209.387 208.727,210.539C209.421,210.906 211.24,210.96 223.223,210.969C236.159,210.979 236.981,210.952 237.908,210.479ZM214.16,187.715C214.954,187.355 215.905,187.178 217.061,187.176C219.756,187.171 221.014,187.905 224.976,191.795L228.343,195.101L229.11,194.3C231.854,191.436 236.708,191.411 239.617,194.246L240.609,195.212L240.609,187.605C240.609,181.116 240.546,179.873 240.181,179.151C239.572,177.948 239.031,177.393 237.908,176.82C236.982,176.348 236.149,176.319 223.279,176.319C210.41,176.319 209.576,176.348 208.65,176.82C207.527,177.394 206.987,177.948 206.378,179.151C206.012,179.873 205.949,181.116 205.949,187.605L205.949,195.212L209.464,191.731C211.726,189.491 213.4,188.06 214.16,187.715L214.16,187.715ZM229.406,185.809C229.138,185.653 228.749,185.121 228.542,184.627C228.218,183.849 228.218,183.605 228.544,182.823C228.981,181.778 229.647,181.347 230.822,181.347C231.957,181.347 233.201,182.591 233.201,183.728C233.201,185.457 230.936,186.699 229.405,185.809L229.406,185.809Z" style="fill:rgb(130,0,0);fill-rule:nonzero;"/>
        </g>
        <g transform="matrix(0.651678,0,0,0.651678,1583.7,534.494)">
            <text x="4409.4px" y="1589px" style="font-family:'Arial-BoldMT', 'Arial', sans-serif;font-weight:700;font-size:115.331px;fill:rgb(130,0,0);">INCĂRCAȚI</text>
            <text x="4418.97px" y="1708.1px" style="font-family:'Arial-BoldMT', 'Arial', sans-serif;font-weight:700;font-size:115.331px;fill:rgb(130,0,0);">O IMAGINE</text>
        </g>
    </g>
</svg>
